<svg xmlns="http://www.w3.org/2000/svg" xmlns:xlink="http://www.w3.org/1999/xlink" width="600" zoomAndPan="magnify" viewBox="0 0 450 299.999988" height="400" preserveAspectRatio="xMidYMid meet" version="1.0"><defs><clipPath id="e1c45bd467"><path d="M 36 74 L 414 74 L 414 240.164062 L 36 240.164062 Z M 36 74 " clip-rule="nonzero"/></clipPath></defs><g clip-path="url(#e1c45bd467)"><path fill="#ffffff" d="M 36.242188 74.671875 C 36.121094 74.792969 36.023438 102.769531 36.023438 136.847656 L 36.023438 198.804688 L 36.917969 200.566406 C 37.53125 201.78125 38.269531 202.636719 39.273438 203.308594 L 40.738281 204.28125 L 114.179688 204.28125 L 115.554688 203.386719 C 117.542969 202.097656 118.242188 200.515625 118.242188 197.332031 L 118.242188 194.746094 L 114.910156 192.148438 C 109.964844 188.296875 106.679688 184.925781 101.164062 178.050781 C 100.753906 177.535156 99.40625 177.492188 83.761719 177.488281 C 64.21875 177.488281 65.167969 177.625 63.566406 174.558594 L 62.671875 172.847656 L 62.671875 78.484375 L 61.78125 77.113281 C 60.09375 74.511719 59.796875 74.457031 47.351562 74.457031 C 41.359375 74.457031 36.359375 74.554688 36.242188 74.671875 M 148.246094 74.8125 C 145.308594 75.152344 139.347656 76.511719 135.953125 77.609375 C 129.898438 79.566406 121.050781 84.527344 115.480469 89.085938 C 109.171875 94.25 103.234375 101.378906 99.265625 108.550781 C 97.488281 111.765625 94.523438 119.347656 93.535156 123.203125 C 90.828125 133.78125 90.894531 145.882812 93.71875 156.347656 C 96.207031 165.585938 99.582031 172.160156 105.804688 179.910156 C 115.914062 192.496094 129.550781 200.558594 145.703125 203.492188 C 151.339844 204.515625 162.179688 204.511719 167.800781 203.484375 C 171.792969 202.757812 177.285156 201.285156 179.953125 200.230469 C 187.613281 197.203125 195.90625 192.03125 201.109375 187.035156 L 203.222656 185.007812 L 205.171875 186.785156 C 211.375 192.445312 217.320312 196.238281 225.417969 199.703125 C 233.105469 202.996094 243.390625 204.691406 253.105469 204.273438 C 257.125 204.097656 258.261719 203.957031 263.359375 202.996094 C 271.71875 201.417969 281.183594 197.195312 288.464844 191.796875 C 304.042969 180.246094 313.414062 163.46875 314.878906 144.503906 C 315.511719 136.304688 314.394531 127.207031 311.761719 119.140625 C 308.714844 109.808594 302.0625 99.230469 294.980469 92.46875 C 284.914062 82.855469 271.183594 76.265625 258.144531 74.792969 C 254.382812 74.367188 245.320312 74.367188 241.617188 74.789062 C 235.054688 75.542969 228.609375 77.472656 221.949219 80.683594 C 215.382812 83.847656 209.65625 87.746094 205.023438 92.199219 L 203.246094 93.90625 L 200.886719 91.664062 C 191.453125 82.703125 177.449219 76.121094 164.96875 74.792969 C 161.324219 74.402344 151.65625 74.414062 148.246094 74.8125 M 315.003906 74.847656 C 314.914062 75.082031 314.882812 86.164062 314.933594 99.480469 L 315.027344 123.6875 L 315.964844 128.238281 C 316.824219 132.421875 316.898438 133.339844 316.890625 139.613281 C 316.882812 145.800781 316.792969 146.859375 315.957031 150.988281 L 315.035156 155.535156 L 314.9375 177.484375 L 314.84375 199.429688 L 315.804688 200.949219 C 316.335938 201.78125 317.398438 202.875 318.164062 203.375 L 319.5625 204.28125 L 337.542969 204.28125 L 338.921875 203.308594 C 339.683594 202.769531 340.609375 201.746094 340.980469 201.03125 C 341.644531 199.765625 341.664062 199.273438 341.753906 181.132812 C 341.839844 163.015625 341.859375 162.527344 342.484375 162.191406 C 343.386719 161.707031 343.917969 162.074219 346.570312 165.011719 C 347.835938 166.414062 353.886719 173.117188 360.015625 179.910156 C 366.140625 186.699219 371.832031 193 372.65625 193.902344 C 377.25 198.945312 379.402344 201.355469 379.777344 201.886719 C 380.011719 202.214844 380.886719 202.890625 381.726562 203.382812 L 383.257812 204.28125 L 395.445312 204.386719 C 402.144531 204.445312 408.25 204.398438 409.007812 204.285156 C 409.9375 204.148438 410.757812 203.730469 411.527344 203.003906 C 412.53125 202.058594 412.667969 201.738281 412.667969 200.335938 C 412.667969 199.199219 412.457031 198.449219 411.9375 197.722656 C 411.371094 196.9375 397.414062 181.433594 388.003906 171.132812 C 387.351562 170.417969 383.25 165.886719 378.890625 161.0625 C 367.703125 148.667969 362.359375 142.773438 360.746094 141.027344 C 359.589844 139.78125 359.421875 139.445312 359.769531 139.078125 C 360.003906 138.835938 362.164062 136.445312 364.574219 133.761719 C 368.726562 129.140625 380.527344 116.082031 383.074219 113.289062 C 385.976562 110.105469 397.304688 97.574219 401.285156 93.140625 C 403.695312 90.460938 405.742188 88.195312 405.835938 88.105469 C 406.863281 87.125 412.335938 80.90625 412.757812 80.234375 C 413.847656 78.511719 413.304688 76.273438 411.507812 75.089844 C 410.601562 74.492188 409.84375 74.460938 396.382812 74.457031 L 382.210938 74.457031 L 375.261719 82.171875 C 371.441406 86.417969 367.726562 90.535156 367.011719 91.316406 C 366.46875 91.914062 365.921875 92.507812 365.378906 93.105469 C 365.199219 93.304688 363.082031 95.660156 360.675781 98.339844 C 358.273438 101.023438 355.699219 103.875 354.957031 104.679688 C 354.21875 105.480469 351.53125 108.445312 348.988281 111.257812 C 344.257812 116.492188 343.652344 116.925781 342.378906 115.972656 C 341.890625 115.601562 341.832031 113.914062 341.75 97.527344 L 341.660156 79.492188 L 340.75 77.941406 C 340.246094 77.089844 339.234375 75.992188 338.5 75.503906 L 337.160156 74.617188 L 326.164062 74.519531 C 317.355469 74.441406 315.136719 74.507812 315.003906 74.847656 M 157.363281 98.285156 C 154.65625 99.246094 153.007812 100.46875 151.351562 102.746094 C 149.367188 105.46875 148.828125 106.992188 148.808594 109.945312 C 148.78125 113.753906 149.851562 116.199219 153.339844 120.296875 C 154.144531 121.242188 157.144531 124.730469 160.003906 128.050781 C 162.867188 131.371094 166.523438 135.632812 168.128906 137.519531 C 173.347656 143.644531 190.523438 163.648438 190.933594 164.074219 C 191.152344 164.300781 191.882812 165.164062 192.558594 165.988281 C 194.246094 168.042969 197.824219 170.496094 199.851562 170.980469 C 200.78125 171.203125 202.554688 171.3125 203.90625 171.222656 C 206.839844 171.035156 209.761719 169.679688 212.234375 167.359375 C 213.671875 166.007812 213.839844 165.714844 213.644531 164.90625 C 213.398438 163.898438 212.300781 162.867188 211.464844 162.855469 C 211.171875 162.851562 210.21875 163.441406 209.351562 164.171875 C 206.933594 166.195312 205.207031 166.910156 202.734375 166.90625 C 200.847656 166.902344 200.433594 166.773438 198.832031 165.707031 C 197.847656 165.050781 196.007812 163.296875 194.746094 161.8125 C 191.222656 157.664062 178.070312 142.355469 176.929688 141.074219 C 176.371094 140.449219 172.117188 135.492188 167.472656 130.054688 C 162.828125 124.621094 158.109375 119.140625 156.984375 117.878906 C 153.125 113.539062 152.160156 110.238281 153.804688 106.992188 C 155.230469 104.1875 157.773438 102.441406 160.855469 102.160156 C 164.230469 101.855469 166.238281 103.296875 172.71875 110.691406 C 175.039062 113.339844 177.359375 115.996094 179.671875 118.652344 C 182.402344 121.78125 185.085938 124.851562 185.640625 125.484375 L 188.789062 129.058594 C 189.964844 130.394531 194.546875 135.730469 198.96875 140.914062 C 212.136719 156.347656 211.574219 155.816406 215.785156 156.847656 C 217.753906 157.332031 218.339844 157.355469 219.914062 157.007812 C 224.027344 156.109375 227.253906 153.941406 237.558594 145.160156 C 245.011719 138.8125 247.976562 135.851562 249.261719 133.484375 C 250.292969 131.578125 250.34375 131.332031 250.34375 128.046875 C 250.34375 124.800781 250.285156 124.488281 249.265625 122.457031 C 246.882812 117.710938 242.058594 114.703125 236.828125 114.703125 C 235.402344 114.703125 233.882812 114.898438 233.226562 115.171875 C 231.765625 115.785156 221.078125 124.34375 218.332031 127.101562 C 218.246094 127.191406 216.417969 128.78125 214.273438 130.636719 C 209.1875 135.035156 208.910156 135.351562 208.910156 136.699219 C 208.910156 138.097656 210.007812 138.945312 211.375 138.601562 C 211.875 138.476562 213.683594 137.113281 215.390625 135.570312 C 223.457031 128.289062 233.007812 120.277344 234.597656 119.457031 C 236.625 118.40625 240.285156 119.28125 242.925781 121.441406 C 244.632812 122.839844 246.28125 126.019531 246.28125 127.914062 C 246.28125 130.34375 244.6875 132.898438 241.140625 136.164062 C 236.375 140.542969 226.707031 148.566406 223.871094 150.492188 C 219.675781 153.339844 216.132812 153.542969 213.433594 151.097656 C 212.972656 150.679688 210.054688 147.339844 206.949219 143.675781 C 203.84375 140.011719 201.152344 136.851562 200.964844 136.65625 C 200.777344 136.460938 199.949219 135.507812 199.125 134.542969 C 189.53125 123.304688 175.679688 107.488281 172.546875 104.191406 C 168.933594 100.386719 167.105469 98.972656 164.804688 98.203125 C 162.265625 97.355469 159.910156 97.378906 157.363281 98.285156 M 257.535156 210.96875 C 255.890625 212.261719 256.746094 214.519531 258.882812 214.519531 C 259.960938 214.519531 260.90625 213.570312 260.90625 212.480469 C 260.90625 211.78125 259.507812 210.292969 258.851562 210.292969 C 258.597656 210.292969 258.007812 210.597656 257.535156 210.96875 M 285.300781 211.148438 C 284.496094 212.171875 284.457031 212.828125 285.132812 213.796875 C 285.484375 214.292969 285.972656 214.519531 286.707031 214.519531 C 288.722656 214.519531 289.570312 212.378906 288.101562 211 C 287.097656 210.058594 286.121094 210.109375 285.300781 211.148438 M 381.492188 211.148438 C 380.621094 212.257812 380.644531 212.9375 381.570312 213.8125 C 382.550781 214.734375 383.886719 214.726562 384.539062 213.796875 C 385.230469 212.8125 385.171875 211.722656 384.394531 210.945312 C 383.488281 210.035156 382.300781 210.121094 381.492188 211.148438 M 316.058594 210.820312 C 315.929688 210.949219 315.824219 212.421875 315.824219 214.09375 L 315.824219 217.136719 L 314.925781 216.472656 C 313.496094 215.414062 310.984375 215.261719 309.207031 216.121094 C 307.554688 216.921875 305.894531 219.105469 305.554688 220.921875 C 305.070312 223.511719 306.097656 226.316406 308.136719 227.96875 C 309.773438 229.292969 312.582031 229.542969 314.515625 228.535156 C 315.582031 227.980469 315.824219 227.941406 315.824219 228.335938 C 315.824219 228.703125 316.25 228.816406 317.617188 228.816406 L 319.410156 228.816406 L 319.324219 219.800781 L 319.238281 210.78125 L 317.761719 210.683594 C 316.953125 210.632812 316.183594 210.691406 316.058594 210.820312 M 343.988281 210.835938 C 343.871094 210.953125 343.773438 215.054688 343.773438 219.949219 L 343.773438 228.851562 L 345.613281 228.753906 L 347.449219 228.65625 L 347.375 219.894531 C 347.335938 215.074219 347.230469 211.015625 347.144531 210.875 C 346.949219 210.566406 344.292969 210.53125 343.988281 210.835938 M 360.5625 210.835938 C 360.445312 210.953125 360.347656 212.34375 360.347656 213.921875 C 360.347656 215.5 360.289062 216.792969 360.21875 216.792969 C 360.148438 216.792969 359.457031 216.503906 358.675781 216.152344 C 355.765625 214.832031 352.871094 215.746094 350.972656 218.582031 C 349.9375 220.125 349.890625 220.324219 350 222.695312 C 350.097656 224.898438 350.226562 225.324219 351.105469 226.410156 C 352.890625 228.617188 353.621094 228.980469 356.273438 228.980469 C 358.085938 228.980469 358.804688 228.84375 359.28125 228.410156 C 360.058594 227.710938 360.347656 227.691406 360.347656 228.347656 C 360.347656 228.75 360.683594 228.832031 362.050781 228.753906 L 363.757812 228.65625 L 363.84375 220.082031 C 363.90625 214.03125 363.824219 211.378906 363.5625 211.066406 C 363.183594 210.609375 360.957031 210.441406 360.5625 210.835938 M 203.539062 211.339844 C 203.449219 211.574219 203.414062 215.640625 203.460938 220.375 L 203.546875 228.980469 L 207.121094 228.980469 L 207.121094 211.105469 L 205.414062 211.007812 C 204.222656 210.941406 203.652344 211.039062 203.539062 211.339844 M 276.546875 215.84375 C 275.945312 215.972656 275.0625 216.367188 274.582031 216.71875 L 273.714844 217.363281 L 272.816406 216.589844 C 271.730469 215.65625 269.523438 215.546875 267.972656 216.347656 C 267.261719 216.714844 266.90625 216.765625 266.824219 216.511719 C 266.75 216.296875 265.960938 216.144531 264.933594 216.144531 L 263.167969 216.144531 L 263.253906 222.5625 L 263.34375 228.980469 L 265.046875 229.078125 L 266.753906 229.175781 L 266.753906 224.976562 C 266.753906 221.222656 266.824219 220.691406 267.429688 219.925781 C 268.261719 218.867188 269.652344 218.789062 270.523438 219.753906 C 271.054688 220.339844 271.148438 221.003906 271.195312 224.382812 C 271.222656 226.554688 271.261719 228.511719 271.277344 228.734375 C 271.292969 229.003906 271.859375 229.140625 272.929688 229.140625 L 274.554688 229.140625 L 274.554688 224.960938 C 274.554688 221.222656 274.625 220.691406 275.226562 219.925781 C 275.660156 219.375 276.214844 219.070312 276.769531 219.074219 C 278.5 219.082031 278.601562 219.34375 278.777344 224.171875 L 278.941406 228.65625 L 282.515625 228.65625 L 282.515625 223.941406 C 282.515625 219.566406 282.460938 219.144531 281.753906 218.007812 C 280.625 216.1875 278.703125 215.390625 276.546875 215.84375 M 297.464844 215.796875 C 296.929688 215.925781 296.132812 216.222656 295.691406 216.457031 C 295.113281 216.769531 294.863281 216.785156 294.773438 216.515625 C 294.699219 216.296875 293.917969 216.144531 292.882812 216.144531 L 291.113281 216.144531 L 291.203125 222.5625 L 291.289062 228.980469 L 292.882812 229.082031 C 293.9375 229.148438 294.566406 229.039062 294.746094 228.753906 C 294.894531 228.523438 295.019531 226.539062 295.023438 224.347656 C 295.027344 220.804688 295.097656 220.296875 295.675781 219.71875 C 296.078125 219.316406 296.761719 219.066406 297.464844 219.066406 C 298.167969 219.066406 298.847656 219.316406 299.25 219.71875 C 299.835938 220.300781 299.902344 220.800781 299.902344 224.59375 L 299.902344 228.816406 L 303.476562 228.816406 L 303.476562 224.066406 C 303.476562 218.476562 303.058594 217.277344 300.714844 216.144531 C 299.289062 215.453125 299.003906 215.421875 297.464844 215.796875 M 326.386719 215.769531 C 322.332031 217.09375 320.1875 221.691406 321.980469 225.207031 C 322.679688 226.574219 324.566406 228.371094 325.792969 228.839844 C 326.234375 229.003906 327.355469 229.140625 328.289062 229.140625 C 330.664062 229.140625 332.609375 228.09375 333.941406 226.097656 C 334.871094 224.707031 335 224.257812 335 222.335938 C 335 220.429688 334.867188 219.957031 333.964844 218.59375 C 332.367188 216.179688 328.984375 214.921875 326.386719 215.769531 M 371.234375 215.800781 C 367.902344 216.597656 365.871094 219.121094 365.871094 222.476562 C 365.871094 225.480469 367.574219 227.929688 370.28125 228.824219 C 370.925781 229.039062 372.4375 229.15625 373.640625 229.089844 C 375.527344 228.980469 376.015625 228.816406 377.1875 227.890625 C 377.933594 227.296875 378.546875 226.691406 378.546875 226.546875 C 378.546875 226.207031 376.371094 224.917969 375.804688 224.917969 C 375.566406 224.917969 375.191406 225.136719 374.96875 225.40625 C 374.703125 225.726562 373.980469 225.890625 372.863281 225.890625 C 371.4375 225.890625 371.011719 225.746094 370.265625 225 L 369.371094 224.105469 L 374.28125 224.015625 L 379.195312 223.925781 L 379.195312 222.300781 C 379.195312 218.777344 376.949219 216.1875 373.507812 215.738281 C 372.792969 215.644531 371.769531 215.675781 371.234375 215.800781 M 390.730469 216.003906 C 386.238281 218.339844 385.660156 224.691406 389.640625 227.917969 C 391.605469 229.507812 394.058594 229.503906 397.148438 227.914062 C 397.285156 227.84375 397.394531 228.019531 397.394531 228.300781 C 397.394531 228.710938 397.765625 228.816406 399.1875 228.816406 L 400.980469 228.816406 L 400.894531 222.398438 L 400.804688 215.980469 L 399.097656 215.882812 C 397.730469 215.804688 397.394531 215.882812 397.394531 216.289062 C 397.394531 216.949219 397.109375 216.921875 395.929688 216.144531 C 394.730469 215.347656 392.125 215.28125 390.730469 216.003906 M 406.328125 215.730469 C 405.273438 215.996094 403.917969 217.097656 403.386719 218.128906 C 402.238281 220.347656 403.722656 222.535156 407.183594 223.722656 C 408.800781 224.273438 409.253906 224.574219 409.253906 225.082031 C 409.253906 226.074219 407.003906 226.179688 405.992188 225.230469 L 405.242188 224.523438 L 403.917969 225.269531 C 403.1875 225.675781 402.59375 226.175781 402.59375 226.378906 C 402.59375 226.921875 404.246094 228.398438 405.296875 228.796875 C 406.648438 229.308594 409.652344 229.214844 410.890625 228.625 C 412.761719 227.738281 413.546875 226 412.996094 223.957031 C 412.585938 222.429688 411.867188 221.878906 409.019531 220.902344 C 407.757812 220.46875 406.949219 220 406.882812 219.664062 C 406.726562 218.851562 407.9375 218.628906 409.214844 219.234375 C 410.277344 219.738281 410.398438 219.726562 411.699219 219.066406 L 413.066406 218.367188 L 412.167969 217.433594 C 410.574219 215.769531 408.542969 215.175781 406.328125 215.730469 M 214.679688 216.328125 C 214.121094 216.632812 213.785156 216.683594 213.785156 216.460938 C 213.785156 216.238281 213.097656 216.148438 211.914062 216.207031 L 210.046875 216.304688 L 209.953125 221.992188 C 209.835938 229.378906 209.785156 229.199219 211.925781 229.078125 L 213.621094 228.980469 L 213.785156 224.484375 C 213.929688 220.46875 214.015625 219.9375 214.597656 219.515625 C 214.953125 219.253906 215.683594 219.082031 216.214844 219.136719 C 217.707031 219.28125 218 220.246094 218.003906 225.015625 L 218.007812 229.175781 L 221.421875 228.980469 L 221.582031 224.558594 C 221.765625 219.644531 221.984375 219.066406 223.695312 219.066406 C 225.40625 219.066406 225.628906 219.644531 225.808594 224.558594 L 225.972656 228.980469 L 229.21875 228.980469 L 229.308594 224.429688 C 229.390625 220.246094 229.339844 219.761719 228.660156 218.417969 C 227.347656 215.824219 223.90625 214.964844 221.464844 216.621094 C 220.816406 217.0625 220.285156 217.3125 220.285156 217.179688 C 220.285156 217.042969 219.859375 216.683594 219.339844 216.375 C 218.1875 215.695312 215.886719 215.671875 214.679688 216.328125 M 236.449219 216.472656 C 235.40625 217.039062 235.234375 217.0625 235.234375 216.621094 C 235.234375 216.207031 234.90625 216.128906 233.527344 216.207031 L 231.820312 216.304688 L 231.820312 234.179688 L 235.234375 234.375 L 235.234375 227.824219 L 236.234375 228.5625 C 237.023438 229.148438 237.664062 229.304688 239.242188 229.304688 C 241.679688 229.300781 243.089844 228.570312 244.480469 226.59375 C 245.273438 225.464844 245.46875 224.816406 245.566406 223.035156 C 245.703125 220.4375 244.894531 218.589844 242.925781 216.996094 C 241.3125 215.691406 238.335938 215.449219 236.449219 216.472656 M 252.664062 216.621094 C 251.527344 217.394531 251.480469 217.398438 251.480469 216.765625 C 251.480469 216.171875 251.300781 216.121094 249.613281 216.207031 L 247.742188 216.304688 L 247.65625 222.554688 L 247.566406 228.800781 L 248.34375 228.996094 C 248.769531 229.101562 249.613281 229.144531 250.21875 229.085938 L 251.320312 228.980469 L 251.480469 224.96875 C 251.632812 221.246094 251.699219 220.914062 252.410156 220.339844 C 252.832031 219.996094 253.601562 219.71875 254.117188 219.71875 C 255.046875 219.71875 255.054688 219.703125 255.054688 217.769531 C 255.054688 215.484375 254.636719 215.28125 252.664062 216.621094 M 257.078125 222.5625 L 257.167969 228.980469 L 260.417969 228.980469 L 260.503906 222.5625 L 260.59375 216.144531 L 256.992188 216.144531 Z M 284.953125 222.441406 C 284.953125 228.699219 284.957031 228.742188 285.683594 228.9375 C 286.085938 229.042969 286.890625 229.136719 287.472656 229.136719 L 288.527344 229.140625 L 288.527344 216.144531 L 284.953125 216.144531 Z M 381.363281 216.359375 C 381.027344 216.695312 381.105469 228.429688 381.441406 228.636719 C 381.605469 228.738281 382.410156 228.914062 383.230469 229.027344 L 384.71875 229.230469 L 384.71875 216.144531 L 383.148438 216.144531 C 382.285156 216.144531 381.480469 216.242188 381.363281 216.359375 M 371.394531 218.972656 C 370.625 219.257812 369.769531 220.101562 369.769531 220.582031 C 369.769531 220.914062 370.460938 221.019531 372.695312 221.019531 C 374.304688 221.019531 375.621094 220.882812 375.621094 220.722656 C 375.621094 220.558594 375.171875 220.046875 374.621094 219.585938 C 373.671875 218.785156 372.503906 218.566406 371.394531 218.972656 M 392.613281 219.117188 C 391.238281 219.496094 390.570312 220.523438 390.570312 222.25 C 390.570312 223.996094 390.964844 224.769531 392.1875 225.402344 C 393.394531 226.027344 394.25 226.023438 395.484375 225.382812 C 396.84375 224.679688 397.515625 223 397.078125 221.382812 C 396.527344 219.332031 394.871094 218.492188 392.613281 219.117188 M 237.183594 219.484375 C 235.265625 220.441406 234.941406 223.386719 236.5625 225.113281 C 237.546875 226.160156 239.964844 226.214844 241.039062 225.210938 C 244.085938 222.375 240.890625 217.628906 237.183594 219.484375 M 309.84375 220.066406 C 307.90625 222.367188 309.421875 225.867188 312.363281 225.886719 C 313.359375 225.890625 313.84375 225.667969 314.71875 224.789062 C 315.964844 223.542969 316.15625 222.273438 315.335938 220.6875 C 314.699219 219.457031 313.929688 219.066406 312.136719 219.066406 C 310.914062 219.066406 310.550781 219.226562 309.84375 220.066406 M 326.46875 219.417969 C 325.671875 219.882812 324.925781 221.445312 324.925781 222.652344 C 324.925781 223.847656 326.316406 225.414062 327.679688 225.757812 C 328.902344 226.066406 330.617188 225.1875 331.277344 223.914062 C 332.421875 221.703125 330.835938 219.058594 328.375 219.078125 C 327.636719 219.082031 326.78125 219.238281 326.46875 219.417969 M 354.351562 219.894531 C 352.835938 221.527344 353.046875 223.980469 354.8125 225.238281 C 357.507812 227.15625 361.082031 224.394531 360.03125 221.207031 C 359.550781 219.757812 358.449219 219.066406 356.605469 219.066406 C 355.429688 219.066406 354.957031 219.242188 354.351562 219.894531 M 73.722656 243.660156 C 68.492188 244.1875 63.65625 247.628906 61.371094 252.4375 C 60.847656 253.542969 60.269531 255.371094 60.085938 256.5 C 59.648438 259.195312 59.65625 279.074219 60.09375 281.78125 C 61.152344 288.292969 66.609375 293.621094 73.070312 294.453125 C 76.09375 294.839844 94.871094 294.867188 97.828125 294.484375 C 100.082031 294.195312 102.925781 293.070312 104.972656 291.660156 C 106.941406 290.300781 109.183594 287.140625 110.1875 284.304688 L 111.09375 281.742188 L 111.09375 269.285156 C 111.09375 257.542969 111.054688 256.707031 110.410156 254.617188 C 108.589844 248.730469 103.695312 244.53125 97.769531 243.773438 C 95.527344 243.484375 76.335938 243.394531 73.722656 243.660156 M 71.675781 249.621094 C 69.554688 250.425781 68.152344 251.554688 66.964844 253.414062 C 65.3125 256.003906 65.230469 256.828125 65.335938 270.089844 C 65.425781 281.269531 65.484375 282.367188 66.042969 283.414062 C 67.285156 285.730469 68.839844 287.277344 70.9375 288.277344 L 73.003906 289.261719 L 85.355469 289.261719 C 97.21875 289.261719 97.785156 289.234375 99.539062 288.5625 C 101.746094 287.71875 103.617188 285.933594 104.777344 283.5625 C 105.898438 281.269531 106 279.324219 105.660156 266.1875 L 105.386719 255.628906 L 104.519531 254.160156 C 103.285156 252.082031 101.792969 250.75 99.628906 249.792969 L 97.75 248.964844 L 85.492188 248.996094 C 74.457031 249.023438 73.078125 249.085938 71.675781 249.621094 M 96.335938 253.863281 C 95.410156 254.96875 95.191406 256.917969 95.902344 257.792969 C 97.40625 259.652344 99.316406 259.832031 100.890625 258.257812 C 102.117188 257.03125 102.285156 255.996094 101.503906 254.484375 C 100.882812 253.28125 100.101562 252.863281 98.46875 252.863281 C 97.425781 252.863281 97.015625 253.058594 96.335938 253.863281 M 125.390625 270.25 L 125.390625 285.6875 L 130.917969 285.6875 L 130.917969 254.816406 L 125.390625 254.816406 Z M 194.363281 270.273438 L 194.449219 285.753906 L 196.804688 285.738281 C 198.101562 285.730469 199.308594 285.714844 199.484375 285.703125 C 199.683594 285.695312 199.8125 284.179688 199.8125 281.851562 L 199.8125 278.015625 L 200.921875 276.941406 L 202.03125 275.863281 L 202.910156 277.28125 L 205.941406 282.175781 C 207.128906 284.089844 208.242188 285.699219 208.421875 285.75 C 208.601562 285.804688 210.109375 285.777344 211.777344 285.6875 L 214.804688 285.523438 L 210.617188 279.1875 C 208.316406 275.703125 206.328125 272.671875 206.195312 272.453125 C 206.046875 272.203125 207.382812 270.644531 209.871094 268.179688 C 212.023438 266.042969 213.785156 264.210938 213.785156 264.105469 C 213.785156 264 212.371094 263.914062 210.644531 263.914062 L 207.507812 263.914062 L 203.664062 267.710938 L 199.820312 271.503906 L 199.734375 263.242188 L 199.648438 254.976562 L 194.28125 254.789062 Z M 219.527344 255.03125 C 219.085938 255.472656 219.289062 260.246094 219.765625 260.640625 C 220.050781 260.875 221.171875 260.980469 222.769531 260.921875 L 225.320312 260.828125 L 225.414062 257.820312 L 225.507812 254.816406 L 222.625 254.816406 C 221.039062 254.816406 219.644531 254.914062 219.527344 255.03125 M 247.472656 255.03125 C 247.355469 255.152344 247.257812 257.289062 247.257812 259.78125 L 247.257812 264.316406 L 246.523438 264.089844 C 244.652344 263.519531 241.152344 263.515625 239.417969 264.082031 C 233.898438 265.894531 231.066406 270.132812 231.410156 276.070312 C 231.664062 280.484375 233.917969 284.175781 237.292969 285.710938 C 239.304688 286.621094 242.71875 286.550781 244.859375 285.554688 C 245.777344 285.128906 246.648438 284.582031 246.796875 284.34375 C 246.996094 284.023438 247.117188 284.121094 247.257812 284.714844 C 247.4375 285.488281 247.574219 285.527344 250.113281 285.617188 L 252.78125 285.714844 L 252.78125 254.816406 L 250.234375 254.816406 C 248.835938 254.816406 247.59375 254.914062 247.472656 255.03125 M 286.390625 255.25 C 286.300781 255.488281 286.265625 256.839844 286.320312 258.253906 L 286.414062 260.828125 L 288.964844 260.921875 C 290.367188 260.976562 291.6875 260.875 291.898438 260.699219 C 292.230469 260.421875 292.273438 259.300781 292.113281 255.058594 C 292.105469 254.925781 290.855469 254.816406 289.332031 254.816406 C 287.3125 254.816406 286.511719 254.933594 286.390625 255.25 M 347.78125 255.324219 C 347.667969 255.621094 347.667969 259.027344 347.785156 262.894531 C 347.898438 266.761719 347.992188 273.316406 347.996094 277.457031 L 347.996094 284.992188 L 349.867188 285.558594 C 351.226562 285.972656 352.925781 286.132812 356.136719 286.152344 C 360.523438 286.175781 360.546875 286.171875 362.730469 285.0625 C 365.195312 283.8125 366.730469 282.285156 368.046875 279.769531 C 368.863281 278.199219 368.945312 277.738281 368.949219 274.476562 C 368.957031 271.207031 368.878906 270.742188 368.046875 269.042969 C 366.929688 266.769531 364.746094 264.78125 362.570312 264.058594 C 360.339844 263.320312 356.753906 263.515625 354.910156 264.476562 L 353.539062 265.195312 L 353.359375 254.976562 L 350.671875 254.882812 C 348.417969 254.804688 347.953125 254.875 347.78125 255.324219 M 82.910156 256.113281 C 79.425781 256.851562 76.664062 258.761719 74.601562 261.863281 C 72.753906 264.640625 72.304688 266.371094 72.480469 270.011719 C 72.597656 272.457031 72.765625 273.132812 73.703125 274.878906 C 76.5625 280.234375 81.921875 282.996094 87.683594 282.085938 C 91.808594 281.433594 95.527344 278.558594 97.640625 274.382812 C 98.5 272.683594 98.582031 272.234375 98.582031 269.113281 C 98.582031 265.996094 98.5 265.542969 97.640625 263.84375 C 95.324219 259.265625 91.125 256.289062 86.542969 255.976562 C 85.300781 255.890625 83.664062 255.953125 82.910156 256.113281 M 82.921875 261.589844 C 81.332031 262.0625 79.335938 263.847656 78.484375 265.5625 C 76.710938 269.121094 77.738281 273.230469 80.980469 275.5625 C 82.289062 276.5 82.886719 276.703125 84.746094 276.835938 C 87.441406 277.027344 88.785156 276.621094 90.617188 275.054688 C 93.378906 272.6875 94.230469 269.128906 92.777344 266.027344 C 91.289062 262.863281 88.902344 261.3125 85.582031 261.355469 C 84.511719 261.367188 83.3125 261.472656 82.921875 261.589844 M 144.839844 263.699219 C 141.476562 264.953125 139.222656 266.984375 137.773438 270.074219 C 137.050781 271.617188 136.929688 272.316406 136.929688 274.964844 C 136.929688 277.859375 136.996094 278.175781 138.03125 280.085938 C 139.304688 282.429688 140.890625 283.980469 143.335938 285.269531 C 144.898438 286.09375 145.359375 286.175781 148.464844 286.175781 C 151.539062 286.175781 152.058594 286.085938 153.71875 285.269531 C 156.121094 284.089844 158.085938 282.097656 159.238281 279.675781 C 160.039062 277.988281 160.164062 277.335938 160.164062 274.859375 C 160.164062 271.394531 159.347656 269.300781 157.03125 266.824219 C 154.816406 264.457031 152.570312 263.496094 148.953125 263.363281 C 147.035156 263.292969 145.617188 263.40625 144.839844 263.699219 M 172.558594 263.894531 C 169.578125 265 166.992188 267.492188 165.796875 270.414062 C 164.90625 272.59375 164.980469 277.511719 165.933594 279.597656 C 166.921875 281.75 169.332031 284.210938 171.496094 285.277344 C 173.140625 286.085938 173.667969 286.175781 176.738281 286.175781 C 179.550781 286.175781 180.417969 286.050781 181.667969 285.472656 C 183.839844 284.46875 186.0625 282.285156 187.230469 280.011719 C 188.140625 278.238281 188.238281 277.757812 188.253906 274.964844 C 188.269531 272.277344 188.15625 271.636719 187.40625 270.03125 C 186.25 267.554688 184.207031 265.414062 181.984375 264.347656 C 179.476562 263.148438 175.144531 262.9375 172.558594 263.894531 M 267.847656 263.601562 C 264.300781 264.09375 260.902344 266.875 259.582031 270.367188 C 258.664062 272.792969 258.621094 277.054688 259.492188 279.246094 C 260.847656 282.652344 263.480469 285.1875 266.585938 286.074219 C 267.304688 286.28125 269.207031 286.4375 270.816406 286.425781 C 274.371094 286.402344 276.765625 285.601562 278.832031 283.746094 L 280.242188 282.480469 L 278.699219 280.921875 L 277.15625 279.359375 L 276.261719 279.941406 C 274.523438 281.070312 273.070312 281.550781 270.980469 281.691406 C 269.226562 281.8125 268.617188 281.707031 267.40625 281.078125 C 265.808594 280.253906 264.480469 278.554688 264.480469 277.34375 L 264.480469 276.566406 L 280.566406 276.621094 L 280.515625 274.511719 C 280.402344 269.613281 277.800781 265.441406 274.042969 264.132812 C 272.316406 263.53125 269.867188 263.320312 267.847656 263.601562 M 303.640625 263.714844 C 301.65625 264.199219 298.925781 265.523438 298.925781 266.007812 C 298.925781 266.203125 299.4375 267.121094 300.0625 268.046875 L 301.199219 269.738281 L 302.746094 268.980469 C 304.5625 268.085938 307.082031 267.742188 308.863281 268.144531 C 310.265625 268.457031 311.925781 270.03125 311.925781 271.042969 C 311.925781 271.617188 311.601562 271.671875 307.59375 271.769531 C 303.429688 271.871094 303.199219 271.914062 301.695312 272.851562 C 298.605469 274.773438 297.335938 277.523438 297.96875 280.90625 C 298.921875 285.980469 305.753906 288.09375 310.625 284.816406 L 311.761719 284.050781 L 311.941406 284.789062 C 312.105469 285.476562 312.285156 285.523438 314.703125 285.523438 L 317.289062 285.523438 L 317.285156 277.238281 C 317.285156 269.3125 317.253906 268.890625 316.566406 267.605469 C 315.675781 265.9375 313.867188 264.480469 311.832031 263.789062 C 310.003906 263.171875 306.023438 263.132812 303.640625 263.714844 M 329.890625 263.734375 C 327.511719 264.480469 325.648438 265.785156 324.734375 267.347656 C 324.003906 268.59375 323.894531 269.097656 324.011719 270.703125 C 324.246094 273.941406 325.992188 275.46875 331.15625 276.949219 C 335.929688 278.316406 337.257812 279.519531 335.628906 280.992188 C 335.066406 281.503906 334.449219 281.625 332.445312 281.625 C 330.25 281.625 329.75 281.503906 328.125 280.582031 L 326.285156 279.542969 L 324.769531 281.164062 C 323.933594 282.054688 323.308594 282.960938 323.378906 283.179688 C 323.613281 283.925781 326.539062 285.628906 328.183594 285.984375 C 330.554688 286.492188 334.605469 286.417969 336.582031 285.832031 C 338.535156 285.253906 340.730469 283.445312 341.386719 281.878906 C 341.945312 280.539062 341.945312 278.480469 341.382812 277.144531 C 340.375 274.769531 338.332031 273.511719 333.265625 272.15625 C 331.652344 271.722656 330.136719 271.210938 329.902344 271.015625 C 329.289062 270.503906 329.375 269.304688 330.070312 268.675781 C 330.964844 267.863281 335.109375 267.933594 336.785156 268.789062 C 337.488281 269.144531 338.210938 269.433594 338.398438 269.429688 C 338.816406 269.421875 341.011719 266.398438 341.011719 265.832031 C 341.011719 265.171875 338.28125 263.964844 335.972656 263.601562 C 333.234375 263.171875 331.582031 263.207031 329.890625 263.734375 M 383.582031 264.207031 C 382.867188 264.539062 381.960938 265.121094 381.566406 265.5 C 380.601562 266.425781 380.496094 266.378906 380.496094 265.039062 L 380.496094 263.886719 L 377.8125 263.980469 L 375.132812 264.078125 L 374.960938 285.6875 L 380.496094 285.6875 L 380.5 279.429688 C 380.511719 271.476562 380.988281 270.144531 384.1875 269.117188 C 384.878906 268.894531 386.15625 268.78125 387.027344 268.863281 C 388.285156 268.984375 388.632812 268.910156 388.746094 268.496094 C 389.410156 266.054688 389.664062 264.566406 389.492188 264.117188 C 389.195312 263.34375 385.320312 263.402344 383.582031 264.207031 M 219.863281 264.117188 C 219.738281 264.246094 219.632812 269.15625 219.632812 275.03125 L 219.632812 285.710938 L 225.320312 285.523438 L 225.320312 264.078125 L 222.707031 263.984375 C 221.269531 263.933594 219.988281 263.992188 219.863281 264.117188 M 286.578125 274.789062 L 286.578125 285.6875 L 292.109375 285.6875 L 292.027344 274.882812 L 291.941406 264.078125 L 289.257812 263.980469 L 286.578125 263.886719 Z M 146.027344 268.652344 C 143.632812 269.898438 142.617188 271.734375 142.617188 274.804688 C 142.617188 278.9375 144.859375 281.464844 148.53125 281.460938 C 150.648438 281.460938 151.996094 280.703125 153.246094 278.816406 C 154.054688 277.597656 154.152344 277.15625 154.152344 274.769531 C 154.152344 272.320312 154.070312 271.976562 153.167969 270.683594 C 152.628906 269.910156 151.675781 269.019531 151.058594 268.707031 C 149.65625 268.003906 147.320312 267.976562 146.027344 268.652344 M 174.300781 268.515625 C 172.929688 269.273438 171.839844 270.597656 171.214844 272.273438 C 170.425781 274.382812 170.410156 275.03125 171.09375 277.097656 C 172.058594 280.007812 173.96875 281.460938 176.835938 281.460938 C 180.855469 281.460938 183.390625 277.394531 182.273438 272.738281 C 181.855469 270.988281 180.234375 268.988281 178.792969 268.441406 C 177.714844 268.03125 175.101562 268.074219 174.300781 268.515625 M 266.917969 268.742188 C 265.605469 269.554688 264.902344 270.394531 264.632812 271.46875 L 264.410156 272.363281 L 274.886719 272.363281 L 274.390625 271.167969 C 274.113281 270.511719 273.722656 269.773438 273.515625 269.523438 C 272.3125 268.078125 268.6875 267.648438 266.917969 268.742188 M 240.269531 269.070312 C 238.132812 270.386719 237.179688 272.335938 237.1875 275.359375 C 237.195312 278.921875 239.320312 281.460938 242.285156 281.460938 C 244.058594 281.460938 245.355469 280.816406 246.335938 279.4375 C 247.023438 278.472656 247.105469 277.964844 247.207031 273.929688 L 247.316406 269.488281 L 246.328125 268.976562 C 244.917969 268.246094 241.519531 268.296875 240.269531 269.070312 M 355.570312 269.101562 C 353.734375 270.21875 353.492188 271.125 353.59375 276.507812 L 353.683594 281.300781 L 356.285156 281.382812 C 358.484375 281.453125 359.082031 281.351562 360.175781 280.726562 C 362.527344 279.382812 363.839844 276.5 363.449219 273.539062 C 363.175781 271.484375 362.566406 270.328125 361.210938 269.292969 C 359.816406 268.230469 357.148438 268.136719 355.570312 269.101562 M 305.265625 276.246094 C 303.453125 276.988281 302.695312 279.734375 303.925781 281.097656 C 304.796875 282.054688 307.070312 282.316406 308.804688 281.65625 C 310.898438 280.855469 311.683594 279.847656 311.859375 277.726562 L 312.007812 275.9375 L 308.960938 275.957031 C 307.285156 275.96875 305.621094 276.097656 305.265625 276.246094 " fill-opacity="1" fill-rule="evenodd"/></g></svg>